<svg xmlns="http://www.w3.org/2000/svg" version="1.1" xmlns:xlink="http://www.w3.org/1999/xlink" xmlns:svgjs="http://svgjs.dev/svgjs" width="2000" height="787" viewBox="0 0 2000 787"><g transform="matrix(1,0,0,1,-1.2121100292132496,1.1516536539518825)"><svg viewBox="0 0 396 156" data-background-color="#ffffff" preserveAspectRatio="xMidYMid meet" height="787" width="2000" xmlns="http://www.w3.org/2000/svg" xmlns:xlink="http://www.w3.org/1999/xlink"><defs></defs><g id="tight-bounds" transform="matrix(1,0,0,1,0.23999778578422593,-0.22828204576428845)"><svg viewBox="0 0 395.52 156.45656409152858" height="156.45656409152858" width="395.52"><g><svg viewBox="0 0 395.52 156.45656409152858" height="156.45656409152858" width="395.52"><g><svg viewBox="0 0 395.52 156.45656409152858" height="156.45656409152858" width="395.52"><g><svg viewBox="0 0 395.52 156.45656409152858" height="156.45656409152858" width="395.52"><g><svg viewBox="0 0 395.52 156.45656409152858" height="156.45656409152858" width="395.52"><g><svg viewBox="0 0 395.52 156.45656409152858" height="156.45656409152858" width="395.52"><g><svg viewBox="0 0 395.52 156.45656409152858" height="156.45656409152858" width="395.52"><g transform="matrix(1,0,0,1,0,0)"><svg width="395.52" viewBox="0.34375 -40 118.806004767352 47" height="156.45656409152858" data-palette-color="#c56e33"><path d="M28.15-1.2L17.15-34.8 6.2-1.2 6.2-1.25Q5.9-0.5 5.38-0.03 4.85 0.45 4.1 0.45L4.1 0.45Q3.7 0.45 3.33 0.38 2.95 0.3 2.55 0.2L2.55 0.2 2.6 0.2Q-0.25-0.7 0.5-3L0.5-3 11.9-37.65Q12.15-38.45 12.78-39 13.4-39.55 14.25-39.65L14.25-39.65Q15.1-39.8 15.9-39.88 16.7-39.95 17.15-39.95L17.15-39.95Q17.6-39.95 18.4-39.88 19.2-39.8 20.05-39.7L20.05-39.7Q20.75-39.6 21.43-38.95 22.1-38.3 22.45-37.65L22.45-37.65Q25.25-29.05 28.13-20.33 31-11.6 33.8-3L33.8-3Q34.5-0.7 31.7 0.2L31.7 0.2Q31.3 0.3 30.98 0.38 30.65 0.45 30.25 0.45L30.25 0.45Q29.55 0.45 28.98-0.03 28.4-0.5 28.15-1.25L28.15-1.25 28.15-1.2ZM20.9-12L20.9-12Q20.9-10.4 19.78-9.28 18.65-8.15 17.05-8.15L17.05-8.15Q15.45-8.15 14.35-9.28 13.25-10.4 13.25-12L13.25-12Q13.25-13.6 14.35-14.73 15.45-15.85 17.05-15.85L17.05-15.85Q18.65-15.85 19.78-14.73 20.9-13.6 20.9-12ZM43.35-25.4L43.3-2.1Q43.3-0.9 42.45-0.3 41.6 0.3 40.6 0.3L40.6 0.3Q37.85 0.3 37.85-2.1L37.85-2.1 37.85-37.6Q37.85-40 40.6-40L40.6-40Q43.35-40 43.35-37.6L43.35-37.6 43.35-30.1 53.9-30.1Q56.45-30.1 59.2-28.2L59.2-28.2Q61.9-26.3 61.9-22.2L61.9-22.2 61.9-7.3Q61.9-3.15 59.45-1.6L59.45-1.6Q57 0 53.85 0L53.85 0 47.95 0Q46.15 0 46.05-2.35L46.05-2.35Q46.05-4.7 47.95-4.7L47.95-4.7 52.95-4.7Q54.8-4.7 55.6-5.38 56.4-6.05 56.4-7.35L56.4-7.35 56.4-21.75Q56.4-23.05 55.6-24.25L55.6-24.25 55.65-24.2Q55-25.4 53-25.4L53-25.4 43.35-25.4ZM82.15 0L75.59 0Q74.05 0 72.65-0.43 71.25-0.85 69.95-1.65L69.95-1.65 69.95-1.6Q67.5-3.15 67.5-7.3L67.5-7.3 67.5-9.75Q67.5-11.8 68.22-13.33 68.95-14.85 70.25-15.75L70.25-15.75 70.2-15.75Q71.45-16.6 72.84-17.03 74.25-17.45 75.55-17.45L75.55-17.45 86.59-17.45 86.59-22.1Q86.59-23.35 85.82-24.38 85.05-25.4 83.2-25.4L83.2-25.4 77.34-25.4Q75.45-25.4 74.72-24.48 74-23.55 74-22.3L74-22.3 74-21.9Q74-19.3 71.2-19.3L71.2-19.3Q68.4-19.3 68.4-21.9L68.4-21.9 68.4-22.35Q68.4-24.4 69.12-25.8 69.84-27.2 71.09-28.15L71.09-28.15 71.05-28.15Q72.34-29 73.77-29.55 75.2-30.1 76.5-30.1L76.5-30.1 84.09-30.1Q85.34-30.1 86.77-29.55 88.2-29 89.45-28.15L89.45-28.15 89.4-28.15Q90.7-27.2 91.4-25.68 92.09-24.15 92.09-22.15L92.09-22.15 92.09-2.1Q92.09 0.3 89.34 0.3L89.34 0.3Q88.8 0.3 88.32 0.25 87.84 0.2 87.47-0.03 87.09-0.25 86.87-0.68 86.65-1.1 86.65-1.8L86.65-1.8 86.59-12.75 76.5-12.75Q75.4-12.75 74.8-12.5 74.2-12.25 73.84-11.7L73.84-11.7Q73.45-10.85 73.27-10.38 73.09-9.9 73.09-9.3L73.09-9.3 73.09-7.35Q73.09-6.05 73.87-5.38 74.65-4.7 76.55-4.7L76.55-4.7 82.15-4.7Q84-4.7 84-2.35L84-2.35Q84-1.35 83.55-0.68 83.09 0 82.15 0L82.15 0ZM102.74 7L100.14 7Q98.39 7 98.29 4.65L98.29 4.65Q98.29 2.3 100.14 2.3L100.14 2.3 102.34 2.3Q104.09 2.3 104.64 1.25L104.64 1.25 105.34-0.6 105.59-1.4 95.84-26.95 95.84-26.9Q95.44-28.1 96.02-28.95 96.59-29.8 97.79-30.2L97.79-30.2Q98.69-30.45 99.24-30.45L99.24-30.45Q100.69-30.45 101.04-28.75L101.04-28.75 104.99-18.9 108.34-10.7 113.69-28.65Q114.14-30.45 115.79-30.45L115.79-30.45Q116.19-30.45 117.09-30.2L117.09-30.2Q118.29-29.85 118.82-29.05 119.34-28.25 119.04-27.15L119.04-27.15Q116.79-19.5 114.47-11.75 112.14-4 109.89 3.6L109.89 3.6Q109.64 4.15 109.12 4.73 108.59 5.3 107.74 5.83 106.89 6.35 105.64 6.68 104.39 7 102.74 7L102.74 7Z" opacity="1" transform="matrix(1,0,0,1,0,0)" fill="#c56e33" class="undefined-text-0" data-fill-palette-color="primary" id="text-0"></path></svg></g></svg></g></svg></g></svg></g></svg></g></svg></g></svg></g></svg><rect width="395.52" height="156.45656409152858" fill="none" stroke="none" visibility="hidden"></rect></g></svg></g></svg>