<svg xmlns="http://www.w3.org/2000/svg" version="1.1" xmlns:xlink="http://www.w3.org/1999/xlink" xmlns:svgjs="http://svgjs.dev/svgjs" width="2000" height="848" viewBox="0 0 2000 848"><g transform="matrix(1,0,0,1,-1.2121212121212466,0.4424944380772331)"><svg viewBox="0 0 396 168" data-background-color="#ffffff" preserveAspectRatio="xMidYMid meet" height="848" width="2000" xmlns="http://www.w3.org/2000/svg" xmlns:xlink="http://www.w3.org/1999/xlink"><defs></defs><g id="tight-bounds" transform="matrix(1,0,0,1,0.2400000000000091,-0.08766399244926504)"><svg viewBox="0 0 395.52 168.17532798489853" height="168.17532798489853" width="395.52"><g><svg viewBox="0 0 395.52 168.17532798489853" height="168.17532798489853" width="395.52"><g><svg viewBox="0 0 395.52 168.17532798489853" height="168.17532798489853" width="395.52"><g><svg viewBox="0 0 395.52 168.17532798489853" height="168.17532798489853" width="395.52"><g><svg viewBox="0 0 395.52 168.17532798489853" height="168.17532798489853" width="395.52"><g><svg viewBox="0 0 395.52 168.17532798489853" height="168.17532798489853" width="395.52"><g><svg viewBox="0 0 395.52 168.17532798489853" height="168.17532798489853" width="395.52"><g transform="matrix(1,0,0,1,0,0)"><svg width="395.52" viewBox="0.9 -35.05 105.94 45.05" height="168.17532798489853" data-palette-color="#c56e33"><path d="M5.85 0L5.85-1.5 24.25-1.5 13.65-30.65 2.5 0 0.9 0 13.65-35.05 26.4 0 5.85 0ZM39.25 0L39.25 0 32.05 0 32.05-29 37.55-29Q43.45-29 46.47-26.95 49.5-24.9 49.5-21.35L49.5-21.35Q49.5-17.1 45.75-15.2L45.75-15.2Q48.5-14.25 49.85-12.38 51.2-10.5 51.2-8.05L51.2-8.05Q51.2-4.45 48.22-2.23 45.25 0 39.25 0ZM33.55-1.5L39.25-1.5Q43.65-1.5 46.67-3.1 49.7-4.7 49.7-8.05L49.7-8.05Q49.7-9.6 48.55-11.43 47.4-13.25 45-14.1L45-14.1 42.4-15 44.8-16.25Q46.05-16.9 47.02-18.23 48-19.55 48-21.35L48-21.35Q48-24.5 45-26 42-27.5 37.55-27.5L37.55-27.5 33.55-27.5 33.55-1.5ZM61.49 0L61.49-1.5 77.8-1.5 67.55-25.65 56.64 0 55.05 0 67.55-29.5 80.05 0 61.49 0ZM87.49-27.5L87.49-29 106.84-29 95.09-1.25 95.09 10 93.59 10 93.59-1.25 81.84-29 83.44-29 94.34-3.35 104.59-27.5 87.49-27.5Z" opacity="1" transform="matrix(1,0,0,1,0,0)" fill="#c56e33" class="undefined-text-0" data-fill-palette-color="primary" id="text-0"></path></svg></g></svg></g></svg></g></svg></g></svg></g></svg></g></svg></g></svg><rect width="395.52" height="168.17532798489853" fill="none" stroke="none" visibility="hidden"></rect></g></svg></g></svg>